PathFileType	4	(X/Y/Z)	CPRIT_Patient3_R_HipIso_Processed.TRC
DataRate	CameraRate	NumFrames	NumMarkers	Units	OrigDataRate	OrigDataStartFrame	OrigNumFrames
150.128314798973	150.128314798973	4	39	m	150.128314798973	586	       1171
Frame#	Time	R.Heel			R.Midfoot.Superior			R.Midfoot.Lateral			R.Toe			L.Heel			L.Midfoot.Superior			L.Midfoot.Lateral			L.Toe			R.Shank.Superior			R.Shank.Inferior			R.Shank.Lateral			R.Shank.Posterior			L.Shank.Superior			L.Shank.Inferior			L.Shank.Posterior			L.Shank.Lateral			R.Patella			L.Patella			R.Thigh.Superior			R.Thigh.Lateral			R.Thigh.Inferior			L.Thigh.Superior			L.Thigh.Inferior			L.Thigh.Lateral			L.Asis			R.Asis			Sacral			R.Shoulder			L.Shoulder			C7			J.Notch			Sternum			Thoracic			L.Elbow			L.Wrist			R.Elbow			R.Wrist			R.PSIS			L.PSIS			
		X1	Y1	Z1	X2	Y2	Z2	X3	Y3	Z3	X4	Y4	Z4	X5	Y5	Z5	X6	Y6	Z6	X7	Y7	Z7	X8	Y8	Z8	X9	Y9	Z9	X10	Y10	Z10	X11	Y11	Z11	X12	Y12	Z12	X13	Y13	Z13	X14	Y14	Z14	X15	Y15	Z15	X16	Y16	Z16	X17	Y17	Z17	X18	Y18	Z18	X19	Y19	Z19	X20	Y20	Z20	X21	Y21	Z21	X22	Y22	Z22	X23	Y23	Z23	X24	Y24	Z24	X25	Y25	Z25	X26	Y26	Z26	X27	Y27	Z27	X28	Y28	Z28	X29	Y29	Z29	X30	Y30	Z30	X31	Y31	Z31	X32	Y32	Z32	X33	Y33	Z33	X34	Y34	Z34	X35	Y35	Z35	X36	Y36	Z36	X37	Y37	Z37	X38	Y38	Z38	X39	Y39	Z39	

586	3.896666666667	0.702739668591	0.072373191569	-0.099439818198	0.857100361362	0.118841800480	-0.024814129613	0.756599765621	0.055178836397	-0.021715275494	0.964618557692	0.072778754999	0.020668743629	0.720572628559	0.042620726250	-0.221944856690	0.891459098603	0.096882457677	-0.214923279524	0.806657862162	0.032960839955	-0.268873763156	1.007938348309	0.057773256340	-0.204592579781	0.858189696406	0.373082818367	-0.000255695786	0.830654313750	0.255861707672	-0.018484558507	0.760153916280	0.318388199533	0.022840807274	0.725629250151	0.391723839049	-0.043376217459	0.849677791840	0.365534336993	-0.244656996403	0.840245638340	0.239498585763	-0.231858442905	0.714155684588	0.341895290579	-0.266470718031	0.794731331112	0.280307054026	-0.303731279480	0.902756319178	0.494196934933	0.002084228704	0.868660208947	0.479026161513	-0.230111376031	0.881039684522	0.815799900402	0.024242420054	0.804767794397	0.731183056266	0.058465074137	0.907917986243	0.660340926757	-0.003363619624	0.919266463863	0.772035594291	-0.250212035344	0.904318923996	0.615082349793	-0.223627203828	0.839464813800	0.709556783315	-0.309161633193	0.915582309152	0.930198606487	-0.228416314864	0.851935658653	0.963825017374	-0.000391561251	0.706158198326	1.007655829530	-0.160413652836	0.783412482904	1.419079832954	0.012636660954	0.888411550294	1.450455987205	-0.298560640314	0.793252936934	1.480450650135	-0.135371492867	0.911605771816	1.382865114526	-0.119465721049	0.963077768845	1.201789301225	-0.117798249428	0.713494035464	1.333243262914	-0.172930138315	0.883808739009	1.166703801636	-0.476369432563	1.059336857638	0.973821980032	-0.484767163778	0.751878915777	1.151771879945	0.218012965306	0.843538537112	0.989187334659	0.398449361202	0.699225606971	1.012000429845	-0.123560871022	0.715964596815	1.005277182166	-0.197356978444	
587	3.903327635328	0.703278246920	0.072184236803	-0.096808138558	0.857789826313	0.118892024296	-0.022613725517	0.757215701699	0.055329273847	-0.019080334222	0.965307575374	0.072961137142	0.022955904770	0.720566630214	0.042625192748	-0.221931780779	0.891463988951	0.096867982731	-0.214885363389	0.806660095905	0.032971136172	-0.268859855972	1.007945475217	0.057755645901	-0.204568935591	0.858852670944	0.373268926015	0.000878963509	0.831327458266	0.255983442238	-0.016822153886	0.760936085920	0.318586811905	0.024531877778	0.726132805769	0.391654884895	-0.041786499871	0.849681466242	0.365446842541	-0.244822278631	0.840375853984	0.239488801244	-0.231774938040	0.714244452360	0.341907378891	-0.266458415623	0.794810790922	0.280282795855	-0.303701607604	0.903300258821	0.494397858494	0.002730537206	0.868834558727	0.478994986948	-0.230085515684	0.881457283742	0.815979202597	0.024322048470	0.805175434946	0.731356454682	0.058703743491	0.908345437451	0.660450763001	-0.002990258277	0.919518239718	0.772019417802	-0.250417887601	0.904480922351	0.615058224528	-0.223750204558	0.839622060897	0.709464332124	-0.309388643519	0.915777102399	0.930294503871	-0.228774257455	0.852303881972	0.963911376826	-0.000702751994	0.706310727459	1.007526508018	-0.160684512853	0.782978438716	1.419073820010	0.012472593582	0.887788284012	1.450557028739	-0.298777458155	0.792652168826	1.480438102936	-0.135535916396	0.911179756588	1.383044453746	-0.119661831981	0.962963791694	1.202039847798	-0.118140731901	0.713367193768	1.333131583678	-0.173356006447	0.883761581829	1.166615868726	-0.476298082668	1.059380545252	0.973832742259	-0.484779215767	0.751777089963	1.151672569302	0.217919308935	0.843536796928	0.989186819597	0.398413157189	0.699378673396	1.011870227306	-0.123834532663	0.716064671841	1.005167466587	-0.197647206488	
588	3.909988603989	0.703867130839	0.072007717765	-0.094080069678	0.858499886575	0.118966641679	-0.020272206556	0.757860205542	0.055496351795	-0.016334082933	0.966004031822	0.073174636777	0.025416645366	0.720560369136	0.042630162165	-0.221918182352	0.891468650008	0.096852250115	-0.214846551942	0.806662555967	0.032982093842	-0.268845275289	1.007953317697	0.057736936374	-0.204544066196	0.859495734978	0.373485239834	0.002133662457	0.831999448823	0.256132705976	-0.015032627573	0.761692666149	0.318814331148	0.026304867470	0.726641658799	0.391604650797	-0.040141905122	0.849695654625	0.365356036944	-0.244967616773	0.840506203323	0.239472830286	-0.231683763268	0.714344331848	0.341923553085	-0.266428006253	0.794899675654	0.280262487571	-0.303656296117	0.903814641321	0.494629281542	0.003500507905	0.869026866272	0.478965125070	-0.230025086161	0.881826423189	0.816178009675	0.024441724928	0.805527423916	0.731563950069	0.058994805520	0.908741382995	0.660585938750	-0.002502522233	0.919756143243	0.772014027680	-0.250596971845	0.904649117497	0.615038271975	-0.223837951932	0.839779164451	0.709377871804	-0.309585357350	0.915958905606	0.930389952397	-0.229109065842	0.852637087839	0.964019655884	-0.000995493442	0.706452126522	1.007409202178	-0.160953481703	0.782540077414	1.419065415706	0.012293987648	0.887198743627	1.450664237297	-0.298994646130	0.792064497051	1.480426456374	-0.135712089390	0.910765687931	1.383228025047	-0.119861028913	0.962847697382	1.202292591078	-0.118480820347	0.713243344337	1.333034876924	-0.173784893726	0.883735653075	1.166543223120	-0.476235226923	1.059426262310	0.973844850526	-0.484789097007	0.751694589528	1.151578939252	0.217824308083	0.843537255722	0.989186781463	0.398378376357	0.699518162184	1.011756409750	-0.124107511387	0.716155487446	1.005064604403	-0.197934219930	
589	3.916649572650	0.704506495791	0.071845318604	-0.091276019763	0.859232228660	0.119065473309	-0.017811990521	0.758535337642	0.055679399411	-0.013498578747	0.966711176260	0.073418321733	0.028024524665	0.720553893790	0.042635606068	-0.221904173305	0.891472899931	0.096835226104	-0.214807395672	0.806665224146	0.032993623379	-0.268830116390	1.007961860969	0.057717255103	-0.204518127644	0.860121367798	0.373730126491	0.003494445673	0.832672290494	0.256308674003	-0.013133192566	0.762426199063	0.319068691958	0.028144924705	0.727157347315	0.391573103639	-0.038454510181	0.849720457566	0.365261734949	-0.245094546085	0.840636739786	0.239450941701	-0.231585480987	0.714455093483	0.341943740580	-0.266380513398	0.794997862335	0.280246037267	-0.303596258941	0.904302789181	0.494889217288	0.004382832135	0.869236784206	0.478936643251	-0.229931147928	0.882149340086	0.816394695242	0.024598951984	0.805827448043	0.731802525728	0.059333069990	0.909108334501	0.660745263152	-0.001909434897	0.919979774553	0.772019416360	-0.250750209166	0.904823680419	0.615022414550	-0.223890959415	0.839936458255	0.709297742756	-0.309751646514	0.916127481605	0.930485098999	-0.229419779119	0.852935063449	0.964147415838	-0.001268646355	0.706581796696	1.007303373389	-0.161218445552	0.782097579798	1.419054090569	0.012102358852	0.886643031477	1.450776337745	-0.299210830383	0.791490229966	1.480414969532	-0.135898605988	0.910363505462	1.383414762170	-0.120062053876	0.962729170482	1.202546376710	-0.118816246085	0.713119797699	1.332952296665	-0.174211942797	0.883729817357	1.166485513666	-0.476181395068	1.059473760494	0.973858183090	-0.484796766652	0.751630684557	1.151491320997	0.217728875395	0.843539733379	0.989187202656	0.398345329495	0.699643660481	1.011658026599	-0.124377580259	0.716236699147	1.004968359656	-0.198215860701	
